<?xml version="1.0" encoding="utf-8"?>
<!-- Generator: Adobe Illustrator 18.0.0, SVG Export Plug-In . SVG Version: 6.00 Build 0)  -->
<!DOCTYPE svg PUBLIC "-//W3C//DTD SVG 1.1//EN" "http://www.w3.org/Graphics/SVG/1.1/DTD/svg11.dtd">
<svg version="1.1" id="Layer_1" xmlns="http://www.w3.org/2000/svg" xmlns:xlink="http://www.w3.org/1999/xlink" x="0px" y="0px"
	 viewBox="0 0 57.2 38.8" enable-background="new 0 0 57.2 38.8" xml:space="preserve">
<g>
	<g>
		<g>
			<g>
				<path fill="#91973F" d="M15.8,33.6c-1.7-1.4-1.7-5.8,0.4-7.2C18.1,28.4,17.3,32.9,15.8,33.6z"/>
			</g>
			<g>
				<path fill="#91973F" d="M17.9,22.3c-1.9-0.4-5.4,1.2-5.5,3.2C15.1,26.2,17.6,24.4,17.9,22.3z"/>
			</g>
			<g>
				<path fill="#91973F" d="M18.3,27.9c-0.7-1-1.9-4.1-0.5-5.7C19.4,23.3,19.6,27,18.3,27.9z"/>
			</g>
			<path fill="#91973F" d="M16.3,27.5l-1-0.3l0.2-0.6c0.8-2.5,1.8-5.9,6.4-10.3l0.7,0.7c-4.4,4.2-5.4,7.3-6.1,9.8L16.3,27.5z"/>
		</g>
	</g>
	<path fill="#CFA537" d="M28.5,2.8c0.1,1.8,2.5,3.6,4.7,3.2C32.7,3.6,29.9,2.4,28.5,2.8z"/>
	<path fill="#CFA537" d="M36.6,7.2c-1,1.5-4.4,2.6-5.7,1.3C32.2,6.3,35,6,36.6,7.2z"/>
	<path fill="#CFA537" d="M33.4,2.7c0.1,1.2,1.3,3.9,3.2,4.2C37,5.1,34.8,2.5,33.4,2.7z"/>
	<path fill="#CFA537" d="M44.8,10c-2.3-0.3-10.9-3.2-13-4.5l0.5-0.9c2.1,1.2,10.4,4,12.7,4.3L44.8,10z"/>
	<path fill="#CFA537" d="M9.9,12.6c-0.3,1,0.7,2.5,2,2.7C12.1,13.9,10.8,12.7,9.9,12.6z"/>
	<path fill="#CFA537" d="M13.4,16.9c-0.7-0.5-1.2-2.3-0.5-2.9C13.9,14.7,14,16.1,13.4,16.9z"/>
	<path fill="#CFA537" d="M10.3,16.3c0.5,0.5,2,1.3,3,0.7C12.9,16,10.9,15.7,10.3,16.3z"/>
	<path fill="#CFA537" d="M18,18.7c-3.9-1-5.6-1.6-6.7-3.8l0.4-0.2c1,2,2.4,2.4,6.4,3.5L18,18.7z"/>
	<polygon fill="#91973F" points="13.9,4.6 13.1,4.1 15.2,0.7 21.7,3.3 21.3,4.2 15.6,1.9 	"/>
	<path fill="#91973F" d="M42.3,38.8c-1.1,0-2.1-0.1-3.1-0.5c-3.3-1.1-5.2-3.8-5.3-7.8l1,0c0.1,4.5,2.6,6.3,4.7,6.9
		c4.4,1.4,10.8-1,14.2-5.4c2-2.7,4.7-8.3-0.3-16C46.7,5.8,37.1,10.3,27,15.1c-8.3,3.9-17,8-23.3,2.5c-5.1-4.5-3.9-8.8-2.6-11
		C3.6,2,10.1-1,14.4,0.3c1.6,0.5,4.3,2.1,3.8,7.3l-1-0.1c0.3-3.4-0.8-5.6-3.1-6.3C10.3,0.1,4.3,3,2,7.1c-1.8,3.3-1,6.8,2.4,9.7
		c5.8,5.1,13.8,1.3,22.2-2.6c10.1-4.8,20.5-9.7,27.6,1.2c5.4,8.3,2.5,14.3,0.3,17.2C51.5,36.5,46.6,38.8,42.3,38.8z"/>
	<g>
		<g>
			<path fill="#EF5050" d="M47.2,24.3c-0.4-1.3-5.5-0.7-7.5,0.2c-2.1,0.9-5.5,3.6-4.9,5.4c0.6,1.8,5.1,1.3,7.7-0.1
				S47.5,25.5,47.2,24.3z"/>
			<path fill="#C11B0A" d="M37.4,31.5L37.4,31.5c-1.7,0-2.8-0.5-3.1-1.5c-0.7-2.2,3.1-5.1,5.2-6c1.3-0.6,3.6-1,5.4-1
				c1.7,0,2.6,0.4,2.8,1.1c0.5,1.6-2.4,4.7-5,6.1C41.2,31,39.1,31.5,37.4,31.5z M44.8,24c-1.7,0-3.8,0.4-5,0.9
				c-2.1,1-5.1,3.4-4.6,4.8c0.2,0.5,1,0.8,2.2,0.8l0,0c1.5,0,3.5-0.5,4.8-1.2c2.7-1.4,4.7-4.1,4.5-4.9C46.7,24.3,46.3,24,44.8,24z"
				/>
		</g>
		<g>
			<path fill="#EF5050" d="M34.9,16.5c1.3-0.2,2.6,4.4,2.6,6.6s-0.5,6.8-2.3,7c-1.8,0.3-3.1-3.9-2.9-6.8S33.6,16.7,34.9,16.5z"/>
			<path fill="#C11B0A" d="M35,30.7c-0.5,0-1-0.2-1.4-0.7c-1.3-1.3-1.9-4.4-1.8-6.7c0.1-2.8,1.3-7,3.1-7.3l0.1,0c1.9,0,3,5.1,3,7.1
				c0,2-0.4,7.2-2.8,7.5C35.2,30.7,35.1,30.7,35,30.7z M35,17c-0.8,0.1-2.1,3.3-2.2,6.4c-0.1,2.2,0.6,4.9,1.6,5.9
				c0.3,0.3,0.5,0.4,0.8,0.4c1.3-0.2,2-4,1.9-6.5C37,20.6,35.7,17,35,17z"/>
		</g>
		<g>
			<path fill="#EF5050" d="M42.3,18.1c-1-0.6-5,2-6.2,3.9s-3.2,7.4-1.7,8.5c1.4,1.2,5.7-2.6,7.1-5.2S43.3,18.7,42.3,18.1z"/>
			<path fill="#C11B0A" d="M35,31.3C35,31.3,35,31.3,35,31.3c-0.4,0-0.7-0.1-1-0.3c-1.9-1.6,0.6-7.6,1.6-9.2
				c1.1-1.7,4.5-4.2,6.2-4.2c0.3,0,0.5,0.1,0.7,0.2c1.5,0.9,0.6,5.5-0.7,7.9C40.6,27.8,37.1,31.3,35,31.3z M41.8,18.5
				c-1.1,0-4.3,2.1-5.3,3.8c-1.4,2.2-2.8,7.1-1.8,7.9c0.1,0.1,0.2,0.1,0.4,0.1c1.5,0,4.8-3,5.9-5.1c1.4-2.6,1.6-6.2,1-6.6
				C42,18.5,41.9,18.5,41.8,18.5z"/>
		</g>
	</g>
	<circle fill="#EF5050" cx="17.3" cy="9.7" r="2.4"/>
	<circle fill="#FD9B92" cx="17.3" cy="9.7" r="1.5"/>
	<circle fill="#EF5050" cx="22.2" cy="4.9" r="1.8"/>
	<circle fill="#FD9B92" cx="22.2" cy="4.9" r="0.9"/>
	<circle fill="#EF5050" cx="12.7" cy="5.5" r="1.9"/>
	<circle fill="#FD9B92" cx="12.7" cy="5.5" r="0.9"/>
</g>
</svg>
