<?xml version="1.0" encoding="utf-8"?>
<!-- Generator: Adobe Illustrator 18.0.0, SVG Export Plug-In . SVG Version: 6.00 Build 0)  -->
<!DOCTYPE svg PUBLIC "-//W3C//DTD SVG 1.1//EN" "http://www.w3.org/Graphics/SVG/1.1/DTD/svg11.dtd">
<svg version="1.1" id="Layer_1" xmlns="http://www.w3.org/2000/svg" xmlns:xlink="http://www.w3.org/1999/xlink" x="0px" y="0px"
	 viewBox="0 0 109.7 49.6" enable-background="new 0 0 109.7 49.6" xml:space="preserve">
<g>
	<g>
		<path fill="#91973F" d="M35.5,0.6c-0.1,4.3,6.6,9.8,11.2,8.4C46.3,3.5,38.4-0.8,35.5,0.6z"/>
		<path fill="#91973F" d="M55.1,11.4c-1.7,3.3-8.5,6.6-11.5,4.2C45.7,10.8,51.5,9.2,55.1,11.4z"/>
		<path fill="#91973F" d="M47.3,3.9c0.6,2.4,3.7,7.9,7.8,7.9C55.4,7.9,50.1,3,47.3,3.9z"/>
		<path fill="#91973F" d="M68.6,14.3c-12.3-0.6-17.8-3-22.3-4.9c-0.5-0.2-1.1-0.5-1.6-0.7l0.4-0.9c0.5,0.2,1.1,0.4,1.6,0.7
			c4.5,1.9,10.1,4.3,22.9,4.9l0,0.6C69.6,13.9,68.9,14.3,68.6,14.3z"/>
	</g>
	<g>
		<g>
			<g>
				<path fill="#91973F" d="M24.8,48.2c-2.3-3.6,0.6-11.8,5.3-13C32.5,40.2,27.9,47.8,24.8,48.2z"/>
			</g>
			<g>
				<path fill="#91973F" d="M36,28.8c-3.1-2-10.7-1.3-12.1,2.3C28.3,34.2,34,32.5,36,28.8z"/>
			</g>
			<g>
				<path fill="#91973F" d="M33.1,39.3c-0.7-2.4-0.9-8.6,2.7-10.8C38,31.7,36,38.6,33.1,39.3z"/>
			</g>
			<path fill="#91973F" d="M29.3,37.1l-0.8-0.6c0.3-0.4,0.5-0.7,0.8-1.1c2.9-3.9,5.8-8,16.9-15.3l0.5,0.8
				c-11,7.2-13.9,11.2-16.7,15.1C29.8,36.3,29.5,36.7,29.3,37.1z"/>
		</g>
	</g>
	<path fill="#CFA537" d="M0,35c0.1-2.2,3.1-4.4,5.8-3.9C5.1,34,1.7,35.4,0,35z"/>
	<path fill="#CFA537" d="M9.9,29.5c-1.2-1.8-5.4-3.2-7-1.6C4.5,30.6,8,31,9.9,29.5z"/>
	<path fill="#CFA537" d="M17,26.2c-0.1-1.8-2.5-4.7-4.3-4.3C12.7,24.6,15,26.4,17,26.2z"/>
	<path fill="#CFA537" d="M79.4,11.2c-0.2-1.5-4.1-3.2-5.8-2.5C74.7,11,77.7,12.3,79.4,11.2z"/>
	<path fill="#CFA537" d="M6,35c0.2-1.4,1.6-4.8,4-5.1C10.5,32.1,7.7,35.3,6,35z"/>
	<path fill="#CFA537" d="M4.5,32.5L4,31.7c2.7-1.5,13.1-5.4,16-5.8l0.1,1C17.4,27.3,7.1,31,4.5,32.5z"/>
	<g>
		<g>
			<g>
				<path fill="#CFA537" d="M50.3,39.4c-1.4-1.7-0.7-5.3,1.6-6.8C53.4,35.2,51.9,38.5,50.3,39.4z"/>
			</g>
			<g>
				<path fill="#CFA537" d="M54.8,28.2c-2.2-1-6.2,0.7-6.3,2.9C51.5,32,53.6,30.1,54.8,28.2z"/>
			</g>
			<g>
				<path fill="#CFA537" d="M58.6,23.8c-2.2-1-4.1-0.9-5.3,1.6C54.6,26.2,57.4,25.7,58.6,23.8z"/>
			</g>
			<g>
				<path fill="#CFA537" d="M62.6,19.1c-1-0.9-3.2-1.2-4.5,0.7C59.4,20.6,61.4,20.9,62.6,19.1z"/>
			</g>
			<g>
				<path fill="#CFA537" d="M55.7,35.2c-0.8-1.2-2.1-4.6-0.6-6.4C57,30.1,57.2,34.2,55.7,35.2z"/>
			</g>
			<g>
				<path fill="#CFA537" d="M58.8,28.3c-0.8-1.2-1.1-3.5,0.4-5.3C61.1,24.2,60.3,27.3,58.8,28.3z"/>
			</g>
			<g>
				<path fill="#CFA537" d="M63.3,23.7c-0.8-1.2-1.2-3.9,0.4-5.8C65.5,19.2,64.7,22.7,63.3,23.7z"/>
			</g>
			<path fill="#CFA537" d="M51.9,34.6l-1-0.3C51.8,31.6,61.6,18,67.3,14c0.3-0.2,1.2-0.1,1.2-0.1l0.2,0.4
				C63.5,17.2,52.8,31.8,51.9,34.6z"/>
		</g>
	</g>
	<path fill="#CFA537" d="M33.9,16.9c0,1.3,1.8,2.7,3.3,2.4C37,17.6,35,16.7,33.9,16.9z"/>
	<path fill="#CFA537" d="M9.9,20.7c-0.9,0.9-0.8,3.1,0.4,4.1C11.4,23.4,10.7,21.3,9.9,20.7z"/>
	<path fill="#CFA537" d="M5.1,21.7C5.5,23,7.5,23.8,9,23.2C8.2,21.6,6.1,21.2,5.1,21.7z"/>
	<path fill="#CFA537" d="M39.6,20.6c-1-0.4-2.3-2.2-1.7-3.2C39.4,17.8,40.1,19.4,39.6,20.6z"/>
	<path fill="#CFA537" d="M35.9,21.1c0.8,0.4,2.9,0.8,3.8-0.3C38.7,19.8,36.3,20.1,35.9,21.1z"/>
	<path fill="#CFA537" d="M42.1,21.2c-2.6,0-4.2-0.4-5.8-2l0.7-0.7c1.8,1.9,3.7,2,8.6,1.7l0.1,0.8C44.3,21.2,43.1,21.2,42.1,21.2z"/>
	<g>
		<path fill="#CFA537" d="M75.9,19.8c-0.5-1.2,0.4-3.2,1.9-3.6C78.3,17.9,76.9,19.6,75.9,19.8z"/>
		<path fill="#CFA537" d="M79.4,14c-0.8,0.8-1.1,3-0.1,3.6C80.4,16.6,80.3,14.8,79.4,14z"/>
		<path fill="#CFA537" d="M75.8,15.2c0.5-0.7,2.2-2,3.6-1.4C78.9,15.1,76.6,15.9,75.8,15.2z"/>
		<path fill="#CFA537" d="M77.9,17L77,16.7c1-3,3.7-4.8,7.6-6.4c0.2-0.1,0.8,0.1,0.8,0.1l0.2,0.6C80.9,12.9,78.8,14.6,77.9,17z"/>
	</g>
	<polygon fill="#91973F" points="20.1,6.5 19.3,6 22.2,1.4 29.7,5.1 29.3,6 22.6,2.7 	"/>
	<path fill="#91973F" d="M91.6,49.6c-2.2,0-4.2-0.5-5.8-1.6c-2.9-1.9-3.9-5.4-2.8-9.6l1,0.3c-1,3.8-0.2,6.9,2.4,8.6
		c3.9,2.6,10.5,1.5,15.5-2.3c3.2-2.5,10.1-9.9,5-24.4c-5.7-16.2-30.7-8.5-54.8-1.1c-19.9,6.1-38.6,11.9-44.4,3.1
		c-5.7-8.7-2-15-0.1-17.3c3.5-4.2,9.3-6.2,13.4-4.5c1.9,0.8,5.1,3.1,4.4,9.8l-1-0.1c0.4-4.4-0.9-7.5-3.8-8.7
		c-3.6-1.5-9,0.4-12.2,4.2c-3.7,4.5-3.7,10.4,0.1,16.1c5.4,8.2,23.8,2.5,43.3-3.5c24.6-7.6,50-15.4,56,1.7c5.3,15.1-2,22.9-5.3,25.5
		C99.2,48.2,95.2,49.6,91.6,49.6z"/>
	<g>
		<g>
			<path fill="#EF5050" d="M99.3,30.8c-0.4-1.5-6.7-0.9-9.3,0.3c-2.6,1.2-6.7,4.4-6,6.6c0.7,2.2,6.3,1.5,9.5-0.1
				S99.7,32.3,99.3,30.8z"/>
			<path fill="#C11B0A" d="M87.2,39.6C87.2,39.6,87.2,39.6,87.2,39.6c-2,0-3.4-0.6-3.7-1.7c-0.8-2.6,3.6-6,6.3-7.2
				c1.6-0.7,4.4-1.2,6.6-1.2c2,0,3.1,0.4,3.4,1.3c0.6,1.9-2.9,5.7-6.1,7.4C91.8,39,89.3,39.6,87.2,39.6z M96.4,30.4
				c-2,0-4.8,0.5-6.2,1.1c-2.6,1.2-6.3,4.3-5.8,6c0.2,0.7,1.2,1,2.8,1h0c1.9,0,4.3-0.6,6-1.5c3.1-1.6,5.9-5,5.6-6.2
				C98.7,30.8,98.2,30.4,96.4,30.4z"/>
		</g>
		<g>
			<path fill="#EF5050" d="M84.2,21.3c1.6-0.2,3.1,5.4,3.2,8.2c0.1,2.8-0.6,8.3-2.9,8.6c-2.3,0.3-3.8-4.8-3.6-8.4
				S82.5,21.5,84.2,21.3z"/>
			<path fill="#C11B0A" d="M84.3,38.6c-0.6,0-1.2-0.3-1.7-0.8c-1.5-1.6-2.3-5.4-2.2-8.1c0.2-3.5,1.6-8.6,3.7-8.9l0.2,0
				c2.3,0,3.6,6.4,3.6,8.7c0,2.4-0.5,8.7-3.3,9.1C84.5,38.6,84.4,38.6,84.3,38.6z M84.3,21.8c-1.1,0.2-2.7,4-2.9,7.9
				c-0.1,2.8,0.7,6.1,1.9,7.4c0.4,0.4,0.7,0.5,1.1,0.5c1.7-0.2,2.5-4.9,2.5-8.1C86.8,26.4,85.3,21.8,84.3,21.8z"/>
		</g>
		<g>
			<path fill="#EF5050" d="M93.2,23.2c-1.2-0.8-6.1,2.4-7.6,4.8s-3.9,9.1-2.1,10.5c1.8,1.5,7-3.2,8.7-6.4C93.9,29,94.5,24,93.2,23.2
				z"/>
			<path fill="#C11B0A" d="M84.3,39.3L84.3,39.3c-0.5,0-0.8-0.1-1.2-0.4c-2.2-1.8,0.6-9,2-11.2c1.3-2.1,5.5-5.1,7.5-5.1
				c0.3,0,0.6,0.1,0.8,0.2c1.6,1,0.9,6.4-0.9,9.6C91.1,35.1,86.9,39.3,84.3,39.3z M92.7,23.6c-1.4,0-5.3,2.6-6.7,4.7
				c-1.6,2.5-3.6,8.7-2.2,9.9c0.1,0.1,0.3,0.2,0.5,0.2c1.9,0,5.9-3.7,7.4-6.4c1.7-3.2,2.1-7.7,1.2-8.3
				C92.9,23.6,92.9,23.6,92.7,23.6z"/>
		</g>
	</g>
	<circle fill="#EF5050" cx="30.4" cy="7" r="2.1"/>
	<circle fill="#FD9B92" cx="30.4" cy="7" r="1.2"/>
	<circle fill="#EF5050" cx="18.7" cy="7.6" r="2.2"/>
	<circle fill="#FD9B92" cx="18.7" cy="7.6" r="1.2"/>
	<circle fill="#EF5050" cx="24.4" cy="12.8" r="2.9"/>
	<circle fill="#FD9B92" cx="24.4" cy="12.8" r="1.9"/>
</g>
</svg>
