<?xml version="1.0" encoding="utf-8"?>
<!-- Generator: Adobe Illustrator 18.0.0, SVG Export Plug-In . SVG Version: 6.00 Build 0)  -->
<!DOCTYPE svg PUBLIC "-//W3C//DTD SVG 1.1//EN" "http://www.w3.org/Graphics/SVG/1.1/DTD/svg11.dtd">
<svg version="1.1" id="Layer_1" xmlns="http://www.w3.org/2000/svg" xmlns:xlink="http://www.w3.org/1999/xlink" x="0px" y="0px"
	 viewBox="0 0 140.9 52.1" enable-background="new 0 0 140.9 52.1" xml:space="preserve">
<g>
	<g>
		<path fill="#91973F" d="M66.8,0.6C66.7,4.9,73.3,10.4,78,9C77.5,3.5,69.7-0.8,66.8,0.6z"/>
		<path fill="#91973F" d="M86.4,11.4c-1.7,3.3-8.5,6.6-11.5,4.2C77,10.8,82.7,9.2,86.4,11.4z"/>
		<path fill="#91973F" d="M78.5,3.9c0.6,2.4,3.7,7.9,7.8,7.9C86.6,7.9,81.3,3,78.5,3.9z"/>
		<path fill="#91973F" d="M99.8,14.3c-12.3-0.6-17.8-3-22.3-4.9C77,9.1,76.5,8.9,76,8.7l0.4-0.9C76.9,8,77.4,8.2,78,8.4
			c4.5,1.9,10.1,4.3,22.9,4.9l0,0.6C100.8,13.9,100.1,14.3,99.8,14.3z"/>
	</g>
	<g>
		<g>
			<g>
				<path fill="#91973F" d="M56,48.2c-2.3-3.6,0.6-11.8,5.3-13C63.7,40.2,59.2,47.8,56,48.2z"/>
			</g>
			<g>
				<path fill="#91973F" d="M67.2,28.8c-3.1-2-10.7-1.3-12.1,2.3C59.5,34.2,65.2,32.5,67.2,28.8z"/>
			</g>
			<g>
				<path fill="#91973F" d="M64.3,39.3c-0.7-2.4-0.9-8.6,2.7-10.8C69.3,31.7,67.2,38.6,64.3,39.3z"/>
			</g>
			<path fill="#91973F" d="M60.5,37.1l-0.8-0.6c0.3-0.4,0.5-0.7,0.8-1.1c2.9-3.9,5.8-8,16.9-15.3l0.5,0.8C67,28.1,64.1,32.1,61.3,36
				C61,36.3,60.8,36.7,60.5,37.1z"/>
		</g>
	</g>
	<path fill="#CFA537" d="M31.2,35c0.1-2.2,3.1-4.4,5.8-3.9C36.4,34,33,35.4,31.2,35z"/>
	<path fill="#CFA537" d="M41.1,29.5c-1.2-1.8-5.4-3.2-7-1.6C35.8,30.6,39.2,31,41.1,29.5z"/>
	<path fill="#CFA537" d="M48.2,26.2c-0.1-1.8-2.5-4.7-4.3-4.3C44,24.6,46.2,26.4,48.2,26.2z"/>
	<path fill="#CFA537" d="M110.6,11.2c-0.2-1.5-4.1-3.2-5.8-2.5C105.9,11,108.9,12.3,110.6,11.2z"/>
	<path fill="#CFA537" d="M37.3,35c0.2-1.4,1.6-4.8,4-5.1C41.7,32.1,39,35.3,37.3,35z"/>
	<path fill="#CFA537" d="M35.7,32.5l-0.5-0.9c2.7-1.5,13.1-5.4,16-5.8l0.1,1C48.6,27.3,38.3,31,35.7,32.5z"/>
	<g>
		<g>
			<g>
				<path fill="#CFA537" d="M81.5,39.4c-1.4-1.7-0.7-5.3,1.6-6.8C84.6,35.2,83.1,38.5,81.5,39.4z"/>
			</g>
			<g>
				<path fill="#CFA537" d="M86,28.2c-2.2-1-6.2,0.7-6.3,2.9C82.7,32,84.8,30.1,86,28.2z"/>
			</g>
			<g>
				<path fill="#CFA537" d="M89.8,23.8c-2.2-1-4.1-0.9-5.3,1.6C85.8,26.2,88.6,25.7,89.8,23.8z"/>
			</g>
			<g>
				<path fill="#CFA537" d="M93.8,19.1c-1-0.9-3.2-1.2-4.5,0.7C90.6,20.6,92.6,20.9,93.8,19.1z"/>
			</g>
			<g>
				<path fill="#CFA537" d="M87,35.2c-0.8-1.2-2.1-4.6-0.6-6.4C88.2,30.1,88.4,34.2,87,35.2z"/>
			</g>
			<g>
				<path fill="#CFA537" d="M90,28.3c-0.8-1.2-1.1-3.5,0.4-5.3C92.3,24.2,91.5,27.3,90,28.3z"/>
			</g>
			<g>
				<path fill="#CFA537" d="M94.5,23.7c-0.8-1.2-1.2-3.9,0.4-5.8C96.7,19.2,95.9,22.7,94.5,23.7z"/>
			</g>
			<path fill="#CFA537" d="M83.2,34.6l-1-0.3C83,31.6,92.8,18,98.5,14c0.3-0.2,1.2-0.1,1.2-0.1l0.2,0.4C94.7,17.2,84,31.8,83.2,34.6
				z"/>
		</g>
	</g>
	<path fill="#CFA537" d="M65.2,16.9c0,1.3,1.8,2.7,3.3,2.4C68.2,17.6,66.2,16.7,65.2,16.9z"/>
	<path fill="#CFA537" d="M41.1,20.7c-0.9,0.9-0.8,3.1,0.4,4.1C42.6,23.4,41.9,21.3,41.1,20.7z"/>
	<path fill="#CFA537" d="M36.4,21.7c0.4,1.2,2.4,2.1,3.9,1.5C39.5,21.6,37.3,21.2,36.4,21.7z"/>
	<path fill="#CFA537" d="M70.9,20.6c-1-0.4-2.3-2.2-1.7-3.2C70.7,17.8,71.3,19.4,70.9,20.6z"/>
	<path fill="#CFA537" d="M67.1,21.1c0.8,0.4,2.9,0.8,3.8-0.3C70,19.8,67.5,20.1,67.1,21.1z"/>
	<path fill="#CFA537" d="M73.3,21.2c-2.6,0-4.2-0.4-5.8-2l0.7-0.7c1.8,1.9,3.7,2,8.6,1.7l0.1,0.8C75.5,21.2,74.3,21.2,73.3,21.2z"/>
	<g>
		<path fill="#CFA537" d="M107.1,19.8c-0.5-1.2,0.4-3.2,1.9-3.6C109.5,17.9,108.1,19.6,107.1,19.8z"/>
		<path fill="#CFA537" d="M110.6,14c-0.8,0.8-1.1,3-0.1,3.6C111.6,16.6,111.5,14.8,110.6,14z"/>
		<path fill="#CFA537" d="M107,15.2c0.5-0.7,2.2-2,3.6-1.4C110.1,15.1,107.8,15.9,107,15.2z"/>
		<path fill="#CFA537" d="M109.2,17l-0.9-0.3c1-3,3.7-4.8,7.6-6.4c0.2-0.1,0.8,0.1,0.8,0.1l0.2,0.6C112.1,12.9,110,14.6,109.2,17z"
			/>
	</g>
	<polygon fill="#91973F" points="51.3,6.5 50.5,6 53.4,1.4 61,5.1 60.5,6 53.8,2.7 	"/>
	<path fill="#91973F" d="M122.8,49.6c-2.2,0-4.2-0.5-5.8-1.6c-2.9-1.9-3.9-5.4-2.8-9.6l1,0.3c-1,3.8-0.2,6.9,2.4,8.6
		c3.9,2.6,10.5,1.5,15.5-2.3c3.2-2.5,10.1-9.9,5-24.4c-5.7-16.2-30.7-8.5-54.8-1.1c-19.9,6.1-38.6,11.9-44.4,3.1
		c-5.7-8.7-2-15-0.1-17.3c3.5-4.2,9.3-6.2,13.4-4.5c1.9,0.8,5.1,3.1,4.4,9.8l-1-0.1c0.4-4.4-0.9-7.5-3.8-8.7
		c-3.6-1.5-9,0.4-12.2,4.2c-3.7,4.5-3.7,10.4,0.1,16.1c5.4,8.2,23.8,2.5,43.3-3.5c24.6-7.6,50-15.4,56,1.7c5.3,15.1-2,22.9-5.3,25.5
		C130.4,48.2,126.4,49.6,122.8,49.6z"/>
	<g>
		<g>
			<path fill="#EF5050" d="M130.5,30.8c-0.4-1.5-6.7-0.9-9.3,0.3c-2.6,1.2-6.7,4.4-6,6.6c0.7,2.2,6.3,1.5,9.5-0.1
				S130.9,32.3,130.5,30.8z"/>
			<path fill="#C11B0A" d="M118.4,39.6C118.4,39.6,118.4,39.6,118.4,39.6c-2,0-3.4-0.6-3.7-1.7c-0.8-2.6,3.6-6,6.3-7.2
				c1.6-0.7,4.4-1.2,6.6-1.2c2,0,3.1,0.4,3.4,1.3c0.6,1.9-2.9,5.7-6.1,7.4C123,39,120.5,39.6,118.4,39.6z M127.6,30.4
				c-2,0-4.8,0.5-6.2,1.1c-2.6,1.2-6.3,4.3-5.8,6c0.2,0.7,1.2,1,2.8,1h0c1.9,0,4.3-0.6,6-1.5c3.1-1.6,5.9-5,5.6-6.2
				C130,30.8,129.4,30.4,127.6,30.4z"/>
		</g>
		<g>
			<path fill="#EF5050" d="M115.4,21.3c1.6-0.2,3.1,5.4,3.2,8.2c0.1,2.8-0.6,8.3-2.9,8.6c-2.3,0.3-3.8-4.8-3.6-8.4
				C112.3,26.1,113.8,21.5,115.4,21.3z"/>
			<path fill="#C11B0A" d="M115.5,38.6c-0.6,0-1.2-0.3-1.7-0.8c-1.5-1.6-2.3-5.4-2.2-8.1c0.2-3.5,1.6-8.6,3.7-8.9l0.2,0
				c2.3,0,3.6,6.4,3.6,8.7c0,2.4-0.5,8.7-3.3,9.1C115.7,38.6,115.6,38.6,115.5,38.6z M115.5,21.8c-1.1,0.2-2.7,4-2.9,7.9
				c-0.1,2.8,0.7,6.1,1.9,7.4c0.4,0.4,0.7,0.5,1.1,0.5c1.7-0.2,2.5-4.9,2.5-8.1C118,26.4,116.5,21.8,115.5,21.8z"/>
		</g>
		<g>
			<path fill="#EF5050" d="M124.4,23.2c-1.2-0.8-6.1,2.4-7.6,4.8s-3.9,9.1-2.1,10.5c1.8,1.5,7-3.2,8.7-6.4
				C125.1,29,125.7,24,124.4,23.2z"/>
			<path fill="#C11B0A" d="M115.5,39.3L115.5,39.3c-0.5,0-0.8-0.1-1.2-0.4c-2.2-1.8,0.6-9,2-11.2c1.3-2.1,5.5-5.1,7.5-5.1
				c0.3,0,0.6,0.1,0.8,0.2c1.6,1,0.9,6.4-0.9,9.6C122.3,35.1,118.1,39.3,115.5,39.3z M123.9,23.6c-1.4,0-5.3,2.6-6.7,4.7
				c-1.6,2.5-3.6,8.7-2.2,9.9c0.1,0.1,0.3,0.2,0.5,0.2c1.9,0,5.9-3.7,7.4-6.4c1.7-3.2,2.1-7.7,1.2-8.3
				C124.1,23.6,124.1,23.6,123.9,23.6z"/>
		</g>
	</g>
	<circle fill="#EF5050" cx="61.6" cy="7" r="2.1"/>
	<circle fill="#FD9B92" cx="61.6" cy="7" r="1.2"/>
	<circle fill="#EF5050" cx="49.9" cy="7.6" r="2.2"/>
	<circle fill="#FD9B92" cx="49.9" cy="7.6" r="1.2"/>
	<circle fill="#EF5050" cx="55.6" cy="12.8" r="2.9"/>
	<circle fill="#FD9B92" cx="55.6" cy="12.8" r="1.9"/>
</g>
<g>
	<path fill="#CFA537" d="M4.3,50.4l-1-0.2c1-4.6,4.7-8.2,9.7-9.8c4.9-1.5,10-0.6,12.9,2.2c5.5,5.2,14.3,3.7,18.9-0.8l0.7,0.7
		c-4.9,4.9-14.4,6.4-20.3,0.9c-2.7-2.6-7.4-3.3-12-1.9C8.7,42.8,5.3,46.2,4.3,50.4z"/>
	<path fill="#CFA537" d="M9.3,49.3c0-0.1-0.7-3.1,0.7-6.4c-4.5,1.8-8.7,0.6-8.9,0.6l0.3-1c0,0,5,1.3,9.5-1.1l1.5-0.8l-0.8,1.5
		c-2,3.5-1.2,7-1.2,7L9.3,49.3z"/>
	<path fill="#CFA537" d="M35.4,41.3c2.1-2.5,8.6-2.3,10.5,0.8C42.9,45,36.4,43.5,35.4,41.3z"/>
	<path fill="#E59617" d="M23.9,41.2c0.2-2.2-2.1-5.9-4.3-5.7C19.1,38.5,21.4,41.1,23.9,41.2z"/>
	<path fill="#E59617" d="M23.1,44.6c0.9,0.9,3.1,0.8,4.1-0.5C25.8,43.1,23.8,43.7,23.1,44.6z"/>
	<circle fill="#E59617" cx="3.5" cy="49.7" r="2.3"/>
	<circle fill="#E59617" cx="10.4" cy="49.1" r="1.9"/>
	<circle fill="#E59617" cx="1.6" cy="43.1" r="1.6"/>
</g>
</svg>
